<?xml version="1.0" encoding="utf-8"?>
<!-- Generator: Adobe Illustrator 22.1.0, SVG Export Plug-In . SVG Version: 6.00 Build 0)  -->
<svg version="1.1" id="圖層_1" xmlns="http://www.w3.org/2000/svg" xmlns:xlink="http://www.w3.org/1999/xlink" x="0px" y="0px"
	 viewBox="0 0 512 512" style="enable-background:new 0 0 512 512;" xml:space="preserve">
<style type="text/css">
	.st0{fill:#FDD7AD;}
	.st1{fill:#CBB292;}
	.st2{fill:#FFFAF0;}
	.st3{fill:#6A6AFF;}
	.st4{fill:#FF9F15;}
	.st5{fill:#008A59;}
	.st6{fill:#FCFF6A;}
	.st7{fill:#8AD2FF;}
	.st8{fill:#FF4A73;}
</style>
<path class="st0" d="M256.2,167.8V92.7c0-12.2-9.9-22.1-22.1-22.1c-12.2,0-22.1,9.9-22.1,22.1V48.6c0-12.2-9.9-22.1-22.1-22.1
	s-22.1,9.9-22.1,22.1V22.1C167.9,9.9,158,0,145.8,0s-22.1,9.9-22.1,22.1v26.5c0-12.2-9.9-22.1-22.1-22.1c-12.2,0-22.1,9.9-22.1,22.1
	v225.1l-17.7-53c0-12.3-3.1-24.4-8.9-35.2c-4.8-10.3-15-17.2-26.4-17.7c-5,0-9.7,2.1-13.1,5.8s-5,8.6-4.5,13.6l26.4,157.1v5.8
	c0,24.8,8.7,48.8,24.5,67.8l5.3,6.3c9.2,11.1,14.3,25.1,14.3,39.6v39.5c0,4.9,4,8.8,8.8,8.8h114.8c4.9,0,8.8-4,8.8-8.8v-39.5
	c0-14.4,5.1-28.4,14.3-39.6l5.3-6.3c15.9-19,24.5-43,24.5-67.8V167.8z"/>
<g>
	<path class="st1" d="M123.8,211.9c-4.9,0-8.8-4-8.8-8.8V44.1c0-4.9,4-8.8,8.8-8.8s8.8,4,8.8,8.8V203
		C132.6,207.9,128.6,211.9,123.8,211.9z"/>
	<path class="st1" d="M167.9,223.5c-2.3,0-4.6-0.9-6.2-2.5c-1.7-1.6-2.6-3.9-2.6-6.2V44.1c0-4.9,4-8.8,8.8-8.8s8.8,4,8.8,8.8v170.5
		C176.7,219.5,172.8,223.5,167.9,223.5z"/>
	<path class="st1" d="M212,193.9c-4.9,0-8.8-4-8.8-8.8V88.3c0-4.9,4-8.8,8.8-8.8s8.8,4,8.8,8.8v96.8
		C220.9,190,216.9,193.9,212,193.9z"/>
</g>
<path class="st0" d="M256.2,167.8V92.7c0-12.2,9.9-22.1,22.1-22.1s22.1,9.9,22.1,22.1V48.6c0-12.2,9.9-22.1,22.1-22.1
	s22.1,9.9,22.1,22.1V22.1c0-12.2,9.9-22.1,22.1-22.1c12.2,0,22.1,9.9,22.1,22.1v26.5c0-12.2,9.9-22.1,22.1-22.1s22.1,9.9,22.1,22.1
	v225.1l17.7-53c0-12.3,3.1-24.4,8.9-35.2c4.8-10.3,15-17.2,26.4-17.7c5,0,9.7,2.1,13.1,5.8c3.3,3.7,5,8.6,4.5,13.6l-26.4,157.1v5.8
	c0,24.8-8.7,48.8-24.5,67.8l-5.3,6.3c-9.2,11.1-14.3,25.1-14.3,39.6v39.5c0,4.9-3.9,8.8-8.8,8.8H309.1c-4.9,0-8.8-4-8.8-8.8v-39.5
	c0-14.4-5.1-28.4-14.3-39.6l-5.3-6.3c-15.9-19-24.5-43-24.5-67.8V167.8z"/>
<path class="st1" d="M388.6,229.5c-4.9,0-8.8-3.9-8.8-8.8V44.1c0-4.9,4-8.8,8.8-8.8s8.8,4,8.8,8.8v176.6
	C397.4,225.6,393.5,229.5,388.6,229.5z"/>
<path class="st1" d="M344.4,247.2c-4.9,0-8.8-4-8.8-8.8V44.1c0-4.9,4-8.8,8.8-8.8s8.8,4,8.8,8.8v194.2
	C353.3,243.2,349.3,247.2,344.4,247.2z"/>
<path class="st1" d="M300.3,185.6c-4.9,0-8.8-4-8.8-8.8V88.3c0-4.9,3.9-8.8,8.8-8.8c4.9,0,8.8,4,8.8,8.8v88.5
	C309.1,181.7,305.2,185.6,300.3,185.6z"/>
<path class="st2" d="M335.3,406.1c-4.4,0-8.7-0.6-12.9-1.8c-20.7-6.7-39.4-18.4-54.5-34.1c-14.5-13.2-26-23.7-43.3-24.1
	c-28.8,7.2-85.9,6.7-103.8-45c-12-34.7-3.6-57.3,5.5-70.1c11.7-16.1,30.2-25.7,50.1-26.1c5.9,0,10-4.5,17.4-13.2
	c13.2-15.5,31.4-36.7,77.8-32.2c48.4,4.7,63.2,37.6,77.5,69.4c7.1,18.3,17,35.3,29.4,50.5c26.5,29.7,21.5,70.5,5.8,95.8
	C374.6,393.4,356,405.1,335.3,406.1z"/>
<path class="st3" d="M245.1,272.5c-2.9,0-5.4-2.4-6.3-6c-5.3-21.1-19-29.9-40.8-26.3h-0.1c-3.3,0.8-6.5-1.8-7.5-5.9
	s0.4-8.7,3.4-10.7c0.8-0.5,1.7-0.8,2.5-0.9c28.2-4.8,47.8,8.8,55.2,38.2c0.7,2.7,0.3,5.7-0.9,8S247.2,272.6,245.1,272.5z"/>
<path class="st4" d="M337.2,307.9c-7.6-0.4-15.1-4.9-21.5-13c-1.4-1.6-2.3-4.6-2.2-7.7c0-3.2,0.9-6.1,2.3-7.6
	c1.4-1.5,3.1-1.4,4.5,0.3c17.4,20.7,28.2,4.9,30.2,1.6c1.9-2.9,4.6-2.3,6.1,1.3c1.5,3.6,1.4,8.9-0.3,12.1
	C351,303.4,344.2,308,337.2,307.9z"/>
<path class="st5" d="M275,335.8c-8.9,4.9-19.7,6-31.2,3.4c-2.4-0.4-4.9-2.4-6.5-5.1c-1.6-2.8-2.1-5.9-1.3-8.2
	c0.8-2.3,2.9-3.4,5.3-2.8c30.5,5.9,34.7-14.9,35.3-19.2c0.7-3.7,4-5.1,7.6-3.1c3.6,2,6.2,6.7,5.9,10.6
	C288.4,322.6,283,331.2,275,335.8z"/>
<circle class="st6" cx="159.1" cy="293.1" r="14.7"/>
<circle class="st7" cx="277.6" cy="220" r="14.7"/>
<circle class="st8" cx="340.7" cy="365.1" r="17"/>
</svg>
