<?xml version="1.0" encoding="iso-8859-1"?>
<!-- Generator: Adobe Illustrator 19.0.0, SVG Export Plug-In . SVG Version: 6.00 Build 0)  -->
<svg version="1.1" id="Capa_1" xmlns="http://www.w3.org/2000/svg" xmlns:xlink="http://www.w3.org/1999/xlink" x="0px" y="0px"
	 viewBox="0 0 512 512" style="enable-background:new 0 0 512 512;" xml:space="preserve">
<g>
	<g>
		<path style="fill:#90BAE1;" d="M26.483,397.241h52.966v44.138c0,4.875-3.952,8.828-8.828,8.828H35.31
			c-4.875,0-8.828-3.952-8.828-8.828V397.241z"/>
		<path style="fill:#90BAE1;" d="M432.552,397.241h52.966v44.138c0,4.875-3.952,8.828-8.828,8.828h-35.31
			c-4.875,0-8.828-3.952-8.828-8.828V397.241z"/>
	</g>
	<path style="fill:#B0D3F0;" d="M17.655,61.793h476.69c9.751,0,17.655,7.904,17.655,17.655v317.793
		c0,9.751-7.905,17.655-17.655,17.655H17.655C7.904,414.897,0,406.992,0,397.241V79.448C0,69.698,7.904,61.793,17.655,61.793z"/>
	<path style="fill:#2C3E50;" d="M370.759,335.448v44.138H44.138c-4.869-0.015-8.813-3.958-8.828-8.828v-35.31H370.759z"/>
	<path style="fill:#35495E;" d="M370.759,97.103v238.345H35.31V105.931c0.015-4.869,3.958-8.813,8.828-8.828H370.759z"/>
	<g>
		<circle style="fill:#ECF0F1;" cx="441.379" cy="132.414" r="35.31"/>
		<circle style="fill:#ECF0F1;" cx="441.379" cy="238.345" r="35.31"/>
	</g>
	<path style="fill:#35495E;" d="M406.069,335.448h70.621v35.31c0,4.875-3.952,8.828-8.828,8.828h-52.966
		c-4.875,0-8.828-3.952-8.828-8.828V335.448z"/>
	<path style="fill:#BDC3C7;" d="M97.103,300.138h211.862c9.751,0,17.655,7.904,17.655,17.655v17.655H79.448v-17.655
		C79.448,308.042,87.353,300.138,97.103,300.138z"/>
	<g>
		<path style="fill:#F09372;" d="M79.448,194.207H61.793c-4.875,0-8.828-3.952-8.828-8.828c0-4.875,3.952-8.828,8.828-8.828h17.655
			c4.875,0,8.828,3.952,8.828,8.828C88.276,190.255,84.324,194.207,79.448,194.207z"/>
		<path style="fill:#F09372;" d="M132.414,194.207h-17.655c-4.875,0-8.828-3.952-8.828-8.828c0-4.875,3.952-8.828,8.828-8.828
			h17.655c4.875,0,8.828,3.952,8.828,8.828C141.241,190.255,137.289,194.207,132.414,194.207z"/>
		<path style="fill:#F09372;" d="M185.379,194.207h-17.655c-4.875,0-8.828-3.952-8.828-8.828c0-4.875,3.952-8.828,8.828-8.828
			h17.655c4.875,0,8.828,3.952,8.828,8.828C194.207,190.255,190.255,194.207,185.379,194.207z"/>
		<path style="fill:#F09372;" d="M238.345,194.207H220.69c-4.875,0-8.828-3.952-8.828-8.828c0-4.875,3.952-8.828,8.828-8.828h17.655
			c4.875,0,8.828,3.952,8.828,8.828C247.172,190.255,243.22,194.207,238.345,194.207z"/>
		<path style="fill:#F09372;" d="M291.31,194.207h-17.655c-4.875,0-8.828-3.952-8.828-8.828c0-4.875,3.952-8.828,8.828-8.828h17.655
			c4.875,0,8.828,3.952,8.828,8.828C300.138,190.255,296.186,194.207,291.31,194.207z"/>
		<path style="fill:#F09372;" d="M344.276,194.207h-17.655c-4.875,0-8.828-3.952-8.828-8.828c0-4.875,3.952-8.828,8.828-8.828
			h17.655c4.875,0,8.828,3.952,8.828,8.828C353.103,190.255,349.151,194.207,344.276,194.207z"/>
		<path style="fill:#F09372;" d="M79.448,229.517H61.793c-4.875,0-8.828-3.952-8.828-8.828s3.952-8.828,8.828-8.828h17.655
			c4.875,0,8.828,3.952,8.828,8.828S84.324,229.517,79.448,229.517z"/>
		<path style="fill:#F09372;" d="M132.414,229.517h-17.655c-4.875,0-8.828-3.952-8.828-8.828s3.952-8.828,8.828-8.828h17.655
			c4.875,0,8.828,3.952,8.828,8.828S137.289,229.517,132.414,229.517z"/>
		<path style="fill:#F09372;" d="M185.379,229.517h-17.655c-4.875,0-8.828-3.952-8.828-8.828s3.952-8.828,8.828-8.828h17.655
			c4.875,0,8.828,3.952,8.828,8.828S190.255,229.517,185.379,229.517z"/>
		<path style="fill:#F09372;" d="M238.345,229.517H220.69c-4.875,0-8.828-3.952-8.828-8.828s3.952-8.828,8.828-8.828h17.655
			c4.875,0,8.828,3.952,8.828,8.828S243.22,229.517,238.345,229.517z"/>
		<path style="fill:#F09372;" d="M291.31,229.517h-17.655c-4.875,0-8.828-3.952-8.828-8.828s3.952-8.828,8.828-8.828h17.655
			c4.875,0,8.828,3.952,8.828,8.828S296.186,229.517,291.31,229.517z"/>
		<path style="fill:#F09372;" d="M344.276,229.517h-17.655c-4.875,0-8.828-3.952-8.828-8.828s3.952-8.828,8.828-8.828h17.655
			c4.875,0,8.828,3.952,8.828,8.828S349.151,229.517,344.276,229.517z"/>
		<path style="fill:#F09372;" d="M79.448,264.828H61.793c-4.875,0-8.828-3.952-8.828-8.828s3.952-8.828,8.828-8.828h17.655
			c4.875,0,8.828,3.952,8.828,8.828S84.324,264.828,79.448,264.828z"/>
		<path style="fill:#F09372;" d="M132.414,264.828h-17.655c-4.875,0-8.828-3.952-8.828-8.828s3.952-8.828,8.828-8.828h17.655
			c4.875,0,8.828,3.952,8.828,8.828S137.289,264.828,132.414,264.828z"/>
		<path style="fill:#F09372;" d="M185.379,264.828h-17.655c-4.875,0-8.828-3.952-8.828-8.828s3.952-8.828,8.828-8.828h17.655
			c4.875,0,8.828,3.952,8.828,8.828S190.255,264.828,185.379,264.828z"/>
		<path style="fill:#F09372;" d="M238.345,264.828H220.69c-4.875,0-8.828-3.952-8.828-8.828s3.952-8.828,8.828-8.828h17.655
			c4.875,0,8.828,3.952,8.828,8.828S243.22,264.828,238.345,264.828z"/>
		<path style="fill:#F09372;" d="M291.31,264.828h-17.655c-4.875,0-8.828-3.952-8.828-8.828s3.952-8.828,8.828-8.828h17.655
			c4.875,0,8.828,3.952,8.828,8.828S296.186,264.828,291.31,264.828z"/>
		<path style="fill:#F09372;" d="M344.276,264.828h-17.655c-4.875,0-8.828-3.952-8.828-8.828s3.952-8.828,8.828-8.828h17.655
			c4.875,0,8.828,3.952,8.828,8.828S349.151,264.828,344.276,264.828z"/>
	</g>
</g>
<g>
</g>
<g>
</g>
<g>
</g>
<g>
</g>
<g>
</g>
<g>
</g>
<g>
</g>
<g>
</g>
<g>
</g>
<g>
</g>
<g>
</g>
<g>
</g>
<g>
</g>
<g>
</g>
<g>
</g>
</svg>
