<!--?xml version="1.0" encoding="utf-8"?-->
<!-- Generator: Adobe Illustrator 22.1.0, SVG Export Plug-In . SVG Version: 6.00 Build 0)  -->
<svg version="1.1" id="圖層_1" xmlns="http://www.w3.org/2000/svg" xmlns:xlink="http://www.w3.org/1999/xlink" x="0px" y="0px" viewBox="0 0 1366 768" style="" xml:space="preserve">
<style type="text/css">
	.st0{fill:none;stroke:#DF0038;stroke-width:20;stroke-miterlimit:10;}
	.st1{fill:none;stroke:#000000;stroke-width:9;stroke-linecap:round;stroke-linejoin:round;stroke-miterlimit:10;}
	.st2{fill:none;stroke:#000000;stroke-width:8;stroke-miterlimit:10;}
	.st3{fill:none;stroke:#006837;stroke-width:10;stroke-miterlimit:10;}
	.st4{fill:none;stroke:#009245;stroke-width:16;stroke-miterlimit:10;}
	.st5{fill:none;stroke:#006837;stroke-width:12;stroke-miterlimit:10;}
	.st6{fill:none;stroke:#39B54A;stroke-width:9;stroke-miterlimit:10;}
	.st7{fill:none;stroke:#006837;stroke-width:14;stroke-miterlimit:10;}
	.st8{fill:none;stroke:#39B54A;stroke-width:14;stroke-miterlimit:10;}
	.st9{fill:none;stroke:#009245;stroke-width:10;stroke-miterlimit:10;}
	.st10{fill:none;stroke:#009245;stroke-width:14;stroke-miterlimit:10;}
	.st11{fill:none;stroke:#39B54A;stroke-width:16;stroke-miterlimit:10;}
</style>
<path class="st0 RJHiecdU_0" d="M636.5,125.5l22.1-19.1c0.6-0.5,1.2-0.7,1.9-0.6s1.3,0.4,1.8,0.9l0.6,0.7l0.6,0.7c0.5,0.6,0.7,1.2,0.6,1.9
	c0,0.7-0.4,1.3-0.9,1.8l-22.1,19.1"></path>
<path class="st0 RJHiecdU_1" d="M655.1,132.3L636,110.3c-0.5-0.6-0.7-1.2-0.6-1.9s0.4-1.3,0.9-1.8l0.7-0.6l0.7-0.6c0.6-0.5,1.2-0.7,1.9-0.6
	c0.7,0,1.3,0.4,1.8,0.9l19.1,22.1"></path>
<path class="st1 RJHiecdU_2" d="M646.7,152.9c0.8-0.3,1.3-1,1.3-1.9c0-1.1-0.9-2-2-2s-2,0.9-2,2s0.9,2,2,2C646.2,153,646.5,153,646.7,152.9"></path>
<path class="st1 RJHiecdU_3" d="M642.7,171.9c0.8-0.3,1.3-1,1.3-1.9c0-1.1-0.9-2-2-2s-2,0.9-2,2s0.9,2,2,2C642.2,172,642.5,172,642.7,171.9"></path>
<path class="st1 RJHiecdU_4" d="M633.7,188.9c0.8-0.3,1.3-1,1.3-1.9c0-1.1-0.9-2-2-2s-2,0.9-2,2s0.9,2,2,2C633.2,189,633.5,189,633.7,188.9"></path>
<path class="st2 RJHiecdU_5" d="M586.9,195.7c-4,2.8-8.5,4.5-13.4,6.5c-22.2,9.2-39.2,24.8-49.1,47.1c-4.6,10.4-10.1,20.2-17.5,28.8
	c-14.7,17.2-27.1,35.7-35.4,56.8c-1,2.5-2.6,4.5-4.6,6.4c-15.5,13.8-26.8,29.7-23.8,52c1.3,9.8-0.9,18.7-5.2,27.4
	c-2.6,5.3-5.3,10.8-5.1,17c0.3,6.8,2.4,12.9,7.4,17.8c4.7,4.6,7.8,10.2,9.9,16.5c2.6,7.5,4,15.4,5.8,23.1c1.3,5.3,3.4,9.5,8.4,12.8
	c9.3,6.2,17.5,13.7,24.1,23c1.9,2.7,3.7,5.6,6.7,7.2c4.5,2.4,7.1,6.4,8.9,11c2.1,5.4,3.2,11.1,4,16.9c0.8,5.1,1.1,10.2,3.2,15
	c1.2,2.8,3.4,3.7,6.5,3.2c3.2-0.5,3.2-2.5,3.3-4.9c1.2-15.6,1.9-31.2,5.8-46.4c3.9-15.2,8.1-30.2,21.4-40.5c3-2.3,6.1-4.7,8.8-7.3
	c10.7-10.3,15.9-23.9,20.7-37.5c6.9-19.5,11-39.8,17.1-59.5c4.2-13.9,9.3-27.7,10.6-42.2c1.2-13.2,5.9-24.7,12.4-35.9
	c3.7-6.3,7.2-12.7,10.3-19.3c5-10.4,6.3-20.7,2.1-31.7c-1.4-3.7-2.1-7.8-2.2-11.7c-0.1-8.3,0.8-16.3,9.7-20.6
	c2.5-1.2,4.6-3.3,6.5-5.3c3.9-4.3,3.3-9.4-1.5-12.9c-3.4-2.5-7.2-4.3-11.6-3.9c-3.8,0.3-6.1-1.2-8.3-4.2c-3.7-5.2-8.1-9.7-13.8-12.8
	c-6.3-3.5-12.5-3.4-16.5,2.4c-1.8,2.5-3.7,4.1-5.9,5.6"></path>
<path class="st3 RJHiecdU_6" d="M597.4,223.8l-1.8-3.2c-0.9-1.7-3.3-1.6-4.2,0l-12,21.7c-0.9,1.7,0.3,3.7,2.1,3.7l24.2-0.1c1.9,0,3-2.1,2.1-3.8
	L597.4,223.8"></path>
<path class="st4 RJHiecdU_7" d="M573.4,238.6l-1.3-3.3c-0.7-1.7-2.3-1.7-3,0l-8.7,21.9c-0.7,1.7,0.2,3.8,1.5,3.8h17.3c1.3,0,2.2-2.1,1.5-3.8
	L573.4,238.6"></path>
<path class="st5 RJHiecdU_8" d="M586.4,270.9l-0.9-2.2c-0.5-1.1-1.7-1.1-2.2,0l-6.3,14.8c-0.5,1.1,0.1,2.6,1.1,2.6h12.7c1,0,1.6-1.4,1.1-2.6
	L586.4,270.9"></path>
<path class="st6 RJHiecdU_9" d="M563.3,282.8l-1.3-2c-0.7-1-2.4-1-3,0l-8.7,13.4c-0.7,1,0.2,2.3,1.5,2.3h17.5c1.3,0,2.2-1.3,1.5-2.3
	L563.3,282.8"></path>
<path class="st7 RJHiecdU_10" d="M567.1,308.4l-1.2-2.4c-0.6-1.2-2.1-1.2-2.7,0l-7.9,16.3c-0.6,1.2,0.2,2.8,1.4,2.8h15.8c1.2,0,2-1.6,1.4-2.8
	L567.1,308.4"></path>
<path class="st8 RJHiecdU_11" d="M541.9,319.7l-0.9-1.9c-0.4-1-1.6-1-2,0l-5.8,13c-0.4,1,0.1,2.2,1,2.2h11.7c0.9,0,1.5-1.2,1-2.2L541.9,319.7"></path>
<path class="st9 RJHiecdU_12" d="M526.2,333.6l-1.5-3c-0.8-1.5-2.7-1.5-3.5,0l-10,19.9c-0.8,1.5,0.2,3.4,1.7,3.4h20c1.5,0,2.5-1.9,1.7-3.4
	L526.2,333.6"></path>
<path class="st5 RJHiecdU_13" d="M537.1,363.4l-1.2-2.1c-0.6-1.1-2.1-1.1-2.7,0l-7.9,14.3c-0.6,1.1,0.2,2.5,1.4,2.5h15.8c1.2,0,2-1.4,1.4-2.5
	L537.1,363.4"></path>
<path class="st8 RJHiecdU_14" d="M516.3,373l-1.3-2.5c-0.7-1.3-2.4-1.3-3,0l-8.7,16.6c-0.7,1.3,0.2,2.9,1.5,2.9h17.5c1.3,0,2.2-1.6,1.5-2.9
	L516.3,373"></path>
<path class="st10 RJHiecdU_15" d="M525.4,399.4l-1.1-2.4c-0.6-1.2-2-1.2-2.6,0l-7.5,16.3c-0.6,1.2,0.1,2.8,1.3,2.8h15c1.2,0,1.9-1.6,1.3-2.8
	L525.4,399.4"></path>
<path class="st3 RJHiecdU_16" d="M507,416.3l-1.4-2.7c-0.7-1.4-2.5-1.4-3.2,0l-9.2,18.3c-0.7,1.4,0.2,3.2,1.6,3.2h18.3c1.4,0,2.3-1.8,1.6-3.2
	L507,416.3"></path>
<path class="st10 RJHiecdU_17" d="M514.1,446l-1.2-2.9c-0.6-1.5-2.1-1.5-2.7,0l-7.9,19.5c-0.6,1.5,0.2,3.4,1.4,3.4h15.8c1.2,0,2-1.9,1.4-3.4
	L514.1,446"></path>
<path class="st11 RJHiecdU_18" d="M501.2,468.8l-1.5-2.4c-0.8-1.2-2.7-1.2-3.5,0l-10,15.8c-0.8,1.2,0.2,2.7,1.7,2.7h20c1.5,0,2.5-1.5,1.7-2.7
	L501.2,468.8"></path>
<g>
</g>
<g>
</g>
<g>
</g>
<g>
</g>
<g>
</g>
<g>
</g>
<g>
</g>
<g>
</g>
<g>
</g>
<g>
</g>
<g>
</g>
<g>
</g>
<g>
</g>
<g>
</g>
<g>
</g>
<style data-made-with="vivus-instant">.RJHiecdU_0{stroke-dasharray:69 71;stroke-dashoffset:70;animation:RJHiecdU_draw_0 17000ms ease-out 0ms infinite,RJHiecdU_fade 17000ms linear 0ms infinite;}.RJHiecdU_1{stroke-dasharray:69 71;stroke-dashoffset:70;animation:RJHiecdU_draw_1 17000ms ease-out 0ms infinite,RJHiecdU_fade 17000ms linear 0ms infinite;}.RJHiecdU_2{stroke-dasharray:13 15;stroke-dashoffset:14;animation:RJHiecdU_draw_2 17000ms ease-out 0ms infinite,RJHiecdU_fade 17000ms linear 0ms infinite;}.RJHiecdU_3{stroke-dasharray:13 15;stroke-dashoffset:14;animation:RJHiecdU_draw_3 17000ms ease-out 0ms infinite,RJHiecdU_fade 17000ms linear 0ms infinite;}.RJHiecdU_4{stroke-dasharray:13 15;stroke-dashoffset:14;animation:RJHiecdU_draw_4 17000ms ease-out 0ms infinite,RJHiecdU_fade 17000ms linear 0ms infinite;}.RJHiecdU_5{stroke-dasharray:959 961;stroke-dashoffset:960;animation:RJHiecdU_draw_5 17000ms ease-out 0ms infinite,RJHiecdU_fade 17000ms linear 0ms infinite;}.RJHiecdU_6{stroke-dasharray:90 92;stroke-dashoffset:91;animation:RJHiecdU_draw_6 17000ms ease-out 0ms infinite,RJHiecdU_fade 17000ms linear 0ms infinite;}.RJHiecdU_7{stroke-dasharray:78 80;stroke-dashoffset:79;animation:RJHiecdU_draw_7 17000ms ease-out 0ms infinite,RJHiecdU_fade 17000ms linear 0ms infinite;}.RJHiecdU_8{stroke-dasharray:55 57;stroke-dashoffset:56;animation:RJHiecdU_draw_8 17000ms ease-out 0ms infinite,RJHiecdU_fade 17000ms linear 0ms infinite;}.RJHiecdU_9{stroke-dasharray:60 62;stroke-dashoffset:61;animation:RJHiecdU_draw_9 17000ms ease-out 0ms infinite,RJHiecdU_fade 17000ms linear 0ms infinite;}.RJHiecdU_10{stroke-dasharray:63 65;stroke-dashoffset:64;animation:RJHiecdU_draw_10 17000ms ease-out 0ms infinite,RJHiecdU_fade 17000ms linear 0ms infinite;}.RJHiecdU_11{stroke-dasharray:49 51;stroke-dashoffset:50;animation:RJHiecdU_draw_11 17000ms ease-out 0ms infinite,RJHiecdU_fade 17000ms linear 0ms infinite;}.RJHiecdU_12{stroke-dasharray:78 80;stroke-dashoffset:79;animation:RJHiecdU_draw_12 17000ms ease-out 0ms infinite,RJHiecdU_fade 17000ms linear 0ms infinite;}.RJHiecdU_13{stroke-dasharray:59 61;stroke-dashoffset:60;animation:RJHiecdU_draw_13 17000ms ease-out 0ms infinite,RJHiecdU_fade 17000ms linear 0ms infinite;}.RJHiecdU_14{stroke-dasharray:67 69;stroke-dashoffset:68;animation:RJHiecdU_draw_14 17000ms ease-out 0ms infinite,RJHiecdU_fade 17000ms linear 0ms infinite;}.RJHiecdU_15{stroke-dasharray:62 64;stroke-dashoffset:63;animation:RJHiecdU_draw_15 17000ms ease-out 0ms infinite,RJHiecdU_fade 17000ms linear 0ms infinite;}.RJHiecdU_16{stroke-dasharray:72 74;stroke-dashoffset:73;animation:RJHiecdU_draw_16 17000ms ease-out 0ms infinite,RJHiecdU_fade 17000ms linear 0ms infinite;}.RJHiecdU_17{stroke-dasharray:71 73;stroke-dashoffset:72;animation:RJHiecdU_draw_17 17000ms ease-out 0ms infinite,RJHiecdU_fade 17000ms linear 0ms infinite;}.RJHiecdU_18{stroke-dasharray:70 72;stroke-dashoffset:71;animation:RJHiecdU_draw_18 17000ms ease-out 0ms infinite,RJHiecdU_fade 17000ms linear 0ms infinite;}@keyframes RJHiecdU_draw{100%{stroke-dashoffset:0;}}@keyframes RJHiecdU_fade{0%{stroke-opacity:1;}88.23529411764706%{stroke-opacity:1;}100%{stroke-opacity:0;}}@keyframes RJHiecdU_draw_0{11.76470588235294%{stroke-dashoffset: 70}13.794103151364045%{ stroke-dashoffset: 0;}100%{ stroke-dashoffset: 0;}}@keyframes RJHiecdU_draw_1{13.794103151364045%{stroke-dashoffset: 70}15.82350042037515%{ stroke-dashoffset: 0;}100%{ stroke-dashoffset: 0;}}@keyframes RJHiecdU_draw_2{15.82350042037515%{stroke-dashoffset: 14}16.229379874177372%{ stroke-dashoffset: 0;}100%{ stroke-dashoffset: 0;}}@keyframes RJHiecdU_draw_3{16.22937987417737%{stroke-dashoffset: 14}16.63525932797959%{ stroke-dashoffset: 0;}100%{ stroke-dashoffset: 0;}}@keyframes RJHiecdU_draw_4{16.63525932797959%{stroke-dashoffset: 14}17.04113878178181%{ stroke-dashoffset: 0;}100%{ stroke-dashoffset: 0;}}@keyframes RJHiecdU_draw_5{17.04113878178181%{stroke-dashoffset: 960}44.87287275679123%{ stroke-dashoffset: 0;}100%{ stroke-dashoffset: 0;}}@keyframes RJHiecdU_draw_6{44.87287275679123%{stroke-dashoffset: 91}47.511089206505666%{ stroke-dashoffset: 0;}100%{ stroke-dashoffset: 0;}}@keyframes RJHiecdU_draw_7{47.511089206505666%{stroke-dashoffset: 79}49.80140898153248%{ stroke-dashoffset: 0;}100%{ stroke-dashoffset: 0;}}@keyframes RJHiecdU_draw_8{49.80140898153248%{stroke-dashoffset: 56}51.42492679674137%{ stroke-dashoffset: 0;}100%{ stroke-dashoffset: 0;}}@keyframes RJHiecdU_draw_9{51.42492679674137%{stroke-dashoffset: 61}53.193401559736756%{ stroke-dashoffset: 0;}100%{ stroke-dashoffset: 0;}}@keyframes RJHiecdU_draw_10{53.19340155973676%{stroke-dashoffset: 64}55.04885049140407%{ stroke-dashoffset: 0;}100%{ stroke-dashoffset: 0;}}@keyframes RJHiecdU_draw_11{55.04885049140405%{stroke-dashoffset: 50}56.49841996926913%{ stroke-dashoffset: 0;}100%{ stroke-dashoffset: 0;}}@keyframes RJHiecdU_draw_12{56.49841996926912%{stroke-dashoffset: 79}58.78873974429594%{ stroke-dashoffset: 0;}100%{ stroke-dashoffset: 0;}}@keyframes RJHiecdU_draw_13{58.788739744295945%{stroke-dashoffset: 60}60.528223117734036%{ stroke-dashoffset: 0;}100%{ stroke-dashoffset: 0;}}@keyframes RJHiecdU_draw_14{60.528223117734036%{stroke-dashoffset: 68}62.49963760763053%{ stroke-dashoffset: 0;}100%{ stroke-dashoffset: 0;}}@keyframes RJHiecdU_draw_15{62.49963760763053%{stroke-dashoffset: 63}64.32609514974052%{ stroke-dashoffset: 0;}100%{ stroke-dashoffset: 0;}}@keyframes RJHiecdU_draw_16{64.32609514974054%{stroke-dashoffset: 73}66.44246658742354%{ stroke-dashoffset: 0;}100%{ stroke-dashoffset: 0;}}@keyframes RJHiecdU_draw_17{66.44246658742354%{stroke-dashoffset: 72}68.52984663554923%{ stroke-dashoffset: 0;}100%{ stroke-dashoffset: 0;}}@keyframes RJHiecdU_draw_18{68.52984663554923%{stroke-dashoffset: 71}70.58823529411765%{ stroke-dashoffset: 0;}100%{ stroke-dashoffset: 0;}}</style></svg>
