<!--?xml version="1.0" encoding="utf-8"?-->
<!-- Generator: Adobe Illustrator 22.1.0, SVG Export Plug-In . SVG Version: 6.00 Build 0)  -->
<svg version="1.1" id="圖層_1" xmlns="http://www.w3.org/2000/svg" xmlns:xlink="http://www.w3.org/1999/xlink" x="0px" y="0px" viewBox="0 0 1366 768" style="" xml:space="preserve">
<style type="text/css">
	.st0{fill:none;stroke:#000000;stroke-width:8;stroke-miterlimit:10;}
	.st1{fill:none;stroke:#000000;stroke-miterlimit:10;}
	.st2{fill:none;stroke:#F15A24;stroke-width:4;stroke-miterlimit:10;}
	.st3{fill:none;stroke:#006837;stroke-width:10;stroke-miterlimit:10;}
	.st4{fill:none;stroke:#009245;stroke-width:16;stroke-miterlimit:10;}
	.st5{fill:none;stroke:#006837;stroke-width:12;stroke-miterlimit:10;}
	.st6{fill:none;stroke:#39B54A;stroke-width:9;stroke-miterlimit:10;}
	.st7{fill:none;stroke:#006837;stroke-width:14;stroke-miterlimit:10;}
	.st8{fill:none;stroke:#39B54A;stroke-width:14;stroke-miterlimit:10;}
	.st9{fill:none;stroke:#009245;stroke-width:10;stroke-miterlimit:10;}
	.st10{fill:none;stroke:#009245;stroke-width:14;stroke-miterlimit:10;}
	.st11{fill:none;stroke:#39B54A;stroke-width:16;stroke-miterlimit:10;}
</style>
<path class="st0 FReizDWc_0" d="M586.9,195.7c-4,2.8-8.5,4.5-13.4,6.5c-22.2,9.2-39.2,24.8-49.1,47.1c-4.6,10.4-10.1,20.2-17.5,28.8
	c-14.7,17.2-27.1,35.7-35.4,56.8c-1,2.5-2.6,4.5-4.6,6.4c-15.5,13.8-26.8,29.7-23.8,52c1.3,9.8-0.9,18.7-5.2,27.4
	c-2.6,5.3-5.3,10.8-5.1,17c0.3,6.8,2.4,12.9,7.4,17.8c4.7,4.6,7.8,10.2,9.9,16.5c2.6,7.5,4,15.4,5.8,23.1c1.3,5.3,3.4,9.5,8.4,12.8
	c9.3,6.2,17.5,13.7,24.1,23c1.9,2.7,3.7,5.6,6.7,7.2c4.5,2.4,7.1,6.4,8.9,11c2.1,5.4,3.2,11.1,4,16.9c0.8,5.1,1.1,10.2,3.2,15
	c1.2,2.8,3.4,3.7,6.5,3.2c3.2-0.5,3.2-2.5,3.3-4.9c1.2-15.6,1.9-31.2,5.8-46.4c3.9-15.2,8.1-30.2,21.4-40.5c3-2.3,6.1-4.7,8.8-7.3
	c10.7-10.3,15.9-23.9,20.7-37.5c6.9-19.5,11-39.8,17.1-59.5c4.2-13.9,9.3-27.7,10.6-42.2c1.2-13.2,5.9-24.7,12.4-35.9
	c3.7-6.3,7.2-12.7,10.3-19.3c5-10.4,6.3-20.7,2.1-31.7c-1.4-3.7-2.1-7.8-2.2-11.7c-0.1-8.3,0.8-16.3,9.7-20.6
	c2.5-1.2,4.6-3.3,6.5-5.3c3.9-4.3,3.3-9.4-1.5-12.9c-3.4-2.5-7.2-4.3-11.6-3.9c-3.8,0.3-6.1-1.2-8.3-4.2c-3.7-5.2-8.1-9.7-13.8-12.8
	c-6.3-3.5-12.5-3.4-16.5,2.4c-1.8,2.5-3.7,4.1-5.9,5.6"></path>
<path class="st1 FReizDWc_1" d="M640.5,247.8"></path>
<path class="st1 FReizDWc_2" d="M641,247.6"></path>
<path class="st2 FReizDWc_3" d="M734.6,345.9"></path>
<path class="st3 FReizDWc_4" d="M597.4,223.8l-1.8-3.2c-0.9-1.7-3.3-1.6-4.2,0l-12,21.7c-0.9,1.7,0.3,3.7,2.1,3.7l24.2-0.1c1.9,0,3-2.1,2.1-3.8
	L597.4,223.8"></path>
<path class="st4 FReizDWc_5" d="M573.4,238.6l-1.3-3.3c-0.7-1.7-2.3-1.7-3,0l-8.7,21.9c-0.7,1.7,0.2,3.8,1.5,3.8h17.3c1.3,0,2.2-2.1,1.5-3.8
	L573.4,238.6"></path>
<path class="st5 FReizDWc_6" d="M586.4,270.9l-0.9-2.2c-0.5-1.1-1.7-1.1-2.2,0l-6.3,14.8c-0.5,1.1,0.1,2.6,1.1,2.6h12.7c1,0,1.6-1.4,1.1-2.6
	L586.4,270.9"></path>
<path class="st6 FReizDWc_7" d="M563.3,282.8l-1.3-2c-0.7-1-2.4-1-3,0l-8.7,13.4c-0.7,1,0.2,2.3,1.5,2.3h17.5c1.3,0,2.2-1.3,1.5-2.3
	L563.3,282.8"></path>
<path class="st7 FReizDWc_8" d="M567.1,308.4l-1.2-2.4c-0.6-1.2-2.1-1.2-2.7,0l-7.9,16.3c-0.6,1.2,0.2,2.8,1.4,2.8h15.8c1.2,0,2-1.6,1.4-2.8
	L567.1,308.4"></path>
<path class="st8 FReizDWc_9" d="M541.9,319.7l-0.9-1.9c-0.4-1-1.6-1-2,0l-5.8,13c-0.4,1,0.1,2.2,1,2.2h11.7c0.9,0,1.5-1.2,1-2.2L541.9,319.7"></path>
<path class="st9 FReizDWc_10" d="M526.2,333.6l-1.5-3c-0.8-1.5-2.7-1.5-3.5,0l-10,19.9c-0.8,1.5,0.2,3.4,1.7,3.4h20c1.5,0,2.5-1.9,1.7-3.4
	L526.2,333.6"></path>
<path class="st5 FReizDWc_11" d="M537.1,363.4l-1.2-2.1c-0.6-1.1-2.1-1.1-2.7,0l-7.9,14.3c-0.6,1.1,0.2,2.5,1.4,2.5h15.8c1.2,0,2-1.4,1.4-2.5
	L537.1,363.4"></path>
<path class="st8 FReizDWc_12" d="M516.3,373l-1.3-2.5c-0.7-1.3-2.4-1.3-3,0l-8.7,16.6c-0.7,1.3,0.2,2.9,1.5,2.9h17.5c1.3,0,2.2-1.6,1.5-2.9
	L516.3,373"></path>
<path class="st10 FReizDWc_13" d="M525.4,399.4l-1.1-2.4c-0.6-1.2-2-1.2-2.6,0l-7.5,16.3c-0.6,1.2,0.1,2.8,1.3,2.8h15c1.2,0,1.9-1.6,1.3-2.8
	L525.4,399.4"></path>
<path class="st3 FReizDWc_14" d="M507,416.3l-1.4-2.7c-0.7-1.4-2.5-1.4-3.2,0l-9.2,18.3c-0.7,1.4,0.2,3.2,1.6,3.2h18.3c1.4,0,2.3-1.8,1.6-3.2
	L507,416.3"></path>
<path class="st10 FReizDWc_15" d="M514.1,446l-1.2-2.9c-0.6-1.5-2.1-1.5-2.7,0l-7.9,19.5c-0.6,1.5,0.2,3.4,1.4,3.4h15.8c1.2,0,2-1.9,1.4-3.4
	L514.1,446"></path>
<path class="st11 FReizDWc_16" d="M501.2,468.8l-1.5-2.4c-0.8-1.2-2.7-1.2-3.5,0l-10,15.8c-0.8,1.2,0.2,2.7,1.7,2.7h20c1.5,0,2.5-1.5,1.7-2.7
	L501.2,468.8"></path>
<g>
</g>
<g>
</g>
<g>
</g>
<g>
</g>
<g>
</g>
<g>
</g>
<g>
</g>
<g>
</g>
<g>
</g>
<g>
</g>
<g>
</g>
<g>
</g>
<g>
</g>
<g>
</g>
<g>
</g>
<style data-made-with="vivus-instant">.FReizDWc_0{stroke-dasharray:959 961;stroke-dashoffset:960;animation:FReizDWc_draw_0 19000ms ease-out 0ms infinite,FReizDWc_fade 19000ms linear 0ms infinite;}.FReizDWc_1{stroke-dasharray:0 2;stroke-dashoffset:1;animation:FReizDWc_draw_1 19000ms ease-out 0ms infinite,FReizDWc_fade 19000ms linear 0ms infinite;}.FReizDWc_2{stroke-dasharray:0 2;stroke-dashoffset:1;animation:FReizDWc_draw_2 19000ms ease-out 0ms infinite,FReizDWc_fade 19000ms linear 0ms infinite;}.FReizDWc_3{stroke-dasharray:0 2;stroke-dashoffset:1;animation:FReizDWc_draw_3 19000ms ease-out 0ms infinite,FReizDWc_fade 19000ms linear 0ms infinite;}.FReizDWc_4{stroke-dasharray:90 92;stroke-dashoffset:91;animation:FReizDWc_draw_4 19000ms ease-out 0ms infinite,FReizDWc_fade 19000ms linear 0ms infinite;}.FReizDWc_5{stroke-dasharray:78 80;stroke-dashoffset:79;animation:FReizDWc_draw_5 19000ms ease-out 0ms infinite,FReizDWc_fade 19000ms linear 0ms infinite;}.FReizDWc_6{stroke-dasharray:55 57;stroke-dashoffset:56;animation:FReizDWc_draw_6 19000ms ease-out 0ms infinite,FReizDWc_fade 19000ms linear 0ms infinite;}.FReizDWc_7{stroke-dasharray:60 62;stroke-dashoffset:61;animation:FReizDWc_draw_7 19000ms ease-out 0ms infinite,FReizDWc_fade 19000ms linear 0ms infinite;}.FReizDWc_8{stroke-dasharray:63 65;stroke-dashoffset:64;animation:FReizDWc_draw_8 19000ms ease-out 0ms infinite,FReizDWc_fade 19000ms linear 0ms infinite;}.FReizDWc_9{stroke-dasharray:49 51;stroke-dashoffset:50;animation:FReizDWc_draw_9 19000ms ease-out 0ms infinite,FReizDWc_fade 19000ms linear 0ms infinite;}.FReizDWc_10{stroke-dasharray:78 80;stroke-dashoffset:79;animation:FReizDWc_draw_10 19000ms ease-out 0ms infinite,FReizDWc_fade 19000ms linear 0ms infinite;}.FReizDWc_11{stroke-dasharray:59 61;stroke-dashoffset:60;animation:FReizDWc_draw_11 19000ms ease-out 0ms infinite,FReizDWc_fade 19000ms linear 0ms infinite;}.FReizDWc_12{stroke-dasharray:67 69;stroke-dashoffset:68;animation:FReizDWc_draw_12 19000ms ease-out 0ms infinite,FReizDWc_fade 19000ms linear 0ms infinite;}.FReizDWc_13{stroke-dasharray:62 64;stroke-dashoffset:63;animation:FReizDWc_draw_13 19000ms ease-out 0ms infinite,FReizDWc_fade 19000ms linear 0ms infinite;}.FReizDWc_14{stroke-dasharray:72 74;stroke-dashoffset:73;animation:FReizDWc_draw_14 19000ms ease-out 0ms infinite,FReizDWc_fade 19000ms linear 0ms infinite;}.FReizDWc_15{stroke-dasharray:71 73;stroke-dashoffset:72;animation:FReizDWc_draw_15 19000ms ease-out 0ms infinite,FReizDWc_fade 19000ms linear 0ms infinite;}.FReizDWc_16{stroke-dasharray:70 72;stroke-dashoffset:71;animation:FReizDWc_draw_16 19000ms ease-out 0ms infinite,FReizDWc_fade 19000ms linear 0ms infinite;}@keyframes FReizDWc_draw{100%{stroke-dashoffset:0;}}@keyframes FReizDWc_fade{0%{stroke-opacity:1;}89.47368421052632%{stroke-opacity:1;}100%{stroke-opacity:0;}}@keyframes FReizDWc_draw_0{10.526315789473683%{stroke-dashoffset: 960}43.300142247510664%{ stroke-dashoffset: 0;}100%{ stroke-dashoffset: 0;}}@keyframes FReizDWc_draw_1{43.300142247510664%{stroke-dashoffset: 1}43.33428165007112%{ stroke-dashoffset: 0;}100%{ stroke-dashoffset: 0;}}@keyframes FReizDWc_draw_2{43.33428165007112%{stroke-dashoffset: 1}43.368421052631575%{ stroke-dashoffset: 0;}100%{ stroke-dashoffset: 0;}}@keyframes FReizDWc_draw_3{43.368421052631575%{stroke-dashoffset: 1}43.40256045519204%{ stroke-dashoffset: 0;}100%{ stroke-dashoffset: 0;}}@keyframes FReizDWc_draw_4{43.40256045519204%{stroke-dashoffset: 91}46.50924608819346%{ stroke-dashoffset: 0;}100%{ stroke-dashoffset: 0;}}@keyframes FReizDWc_draw_5{46.50924608819346%{stroke-dashoffset: 79}49.206258890469414%{ stroke-dashoffset: 0;}100%{ stroke-dashoffset: 0;}}@keyframes FReizDWc_draw_6{49.20625889046942%{stroke-dashoffset: 56}51.11806543385491%{ stroke-dashoffset: 0;}100%{ stroke-dashoffset: 0;}}@keyframes FReizDWc_draw_7{51.11806543385491%{stroke-dashoffset: 61}53.200568990042676%{ stroke-dashoffset: 0;}100%{ stroke-dashoffset: 0;}}@keyframes FReizDWc_draw_8{53.20056899004266%{stroke-dashoffset: 64}55.385490753911796%{ stroke-dashoffset: 0;}100%{ stroke-dashoffset: 0;}}@keyframes FReizDWc_draw_9{55.3854907539118%{stroke-dashoffset: 50}57.09246088193457%{ stroke-dashoffset: 0;}100%{ stroke-dashoffset: 0;}}@keyframes FReizDWc_draw_10{57.09246088193457%{stroke-dashoffset: 79}59.78947368421053%{ stroke-dashoffset: 0;}100%{ stroke-dashoffset: 0;}}@keyframes FReizDWc_draw_11{59.78947368421053%{stroke-dashoffset: 60}61.83783783783784%{ stroke-dashoffset: 0;}100%{ stroke-dashoffset: 0;}}@keyframes FReizDWc_draw_12{61.83783783783784%{stroke-dashoffset: 68}64.1593172119488%{ stroke-dashoffset: 0;}100%{ stroke-dashoffset: 0;}}@keyframes FReizDWc_draw_13{64.15931721194879%{stroke-dashoffset: 63}66.31009957325746%{ stroke-dashoffset: 0;}100%{ stroke-dashoffset: 0;}}@keyframes FReizDWc_draw_14{66.31009957325746%{stroke-dashoffset: 73}68.80227596017069%{ stroke-dashoffset: 0;}100%{ stroke-dashoffset: 0;}}@keyframes FReizDWc_draw_15{68.8022759601707%{stroke-dashoffset: 72}71.26031294452348%{ stroke-dashoffset: 0;}100%{ stroke-dashoffset: 0;}}@keyframes FReizDWc_draw_16{71.26031294452346%{stroke-dashoffset: 71}73.68421052631578%{ stroke-dashoffset: 0;}100%{ stroke-dashoffset: 0;}}</style></svg>
