<?xml version="1.0" encoding="UTF-8"?>
<svg xmlns="http://www.w3.org/2000/svg" xmlns:xlink="http://www.w3.org/1999/xlink" width="512" height="512" viewBox="0 0 58 58" version="1.1"><!-- Generator: Sketch 51.3 (57544) - http://www.bohemiancoding.com/sketch --><title>030 - Pottery Tools</title><desc>Created with Sketch.</desc><defs/><g id="Page-1" stroke="none" stroke-width="1" fill="none" fill-rule="evenodd"><g id="030---Pottery-Tools" transform="translate(-1.000000, 0.000000)" fill-rule="nonzero"><path d="M34.038,35 C34.038,35 31,26 34,19 L30.062,17 L26,19 C29,26 25.962,35 25.962,35 L29.962,37 L34.038,35 Z" id="Shape" fill="#805333"/><path d="M51,-7.91948701e-16 C46.9653751,-0.00794169409 43.556236,2.98971251 43.0479831,6.99220421 C42.5397302,10.9946959 45.0914418,14.7492835 49,15.75 L49,24.19 L53,24.19 L53,15.75 C56.9085582,14.7492835 59.4602698,10.9946959 58.9520169,6.99220421 C58.443764,2.98971251 55.0346249,-0.00794169409 51,-7.91948701e-16 Z M51,12 C48.790861,12 47,10.209139 47,8 C47,5.790861 48.790861,4 51,4 C53.209139,4 55,5.790861 55,8 C55,9.06086596 54.5785726,10.0782816 53.8284271,10.8284271 C53.0782816,11.5785726 52.060866,12 51,12 Z" id="Shape" fill="#BDC3C7"/><path d="M47,33.09 L47,26.1 C47.0011749,25.2584107 47.5737922,24.525131 48.39,24.32 C50.1038247,23.8931743 51.8961753,23.8931743 53.61,24.32 C54.4262078,24.525131 54.9988251,25.2584107 55,26.1 L55,33.09 L47,33.09 Z" id="Shape" fill="#95A5A5"/><path d="M34.04,35 L25.96,35 C23.722513,40.1496811 23.3893282,45.9272472 25.02,51.3 L26.33,55.6 C26.9680021,57.0579783 28.4085392,58.0000311 30,58.0000311 C31.5914608,58.0000311 33.0319979,57.0579783 33.67,55.6 L34.98,51.3 C36.6106718,45.9272472 36.277487,40.1496811 34.04,35 Z M30,51 C28.8954305,51 28,50.1045695 28,49 C28,47.8954305 28.8954305,47 30,47 C31.1045695,47 32,47.8954305 32,49 C31.9967052,50.1032019 31.1032019,50.9967052 30,51 Z" id="Shape" fill="#CB8252"/><path d="M25,11 L35,11 L35,18 C35,18.5522847 34.5522847,19 34,19 L26,19 C25.4477153,19 25,18.5522847 25,18 L25,11 Z" id="Shape" fill="#95A5A5"/><path d="M39.61,1.59 C37.2008417,4.97974855 35.6217514,8.88808266 35,13 L25,13 C24.3782486,8.88808266 22.7991583,4.97974855 20.39,1.59 C20.1675684,1.28560948 20.135231,0.881993206 20.3063613,0.546070841 C20.4774915,0.210148476 20.8230007,-0.000979908628 21.2,2.22044605e-16 L38.8,2.22044605e-16 C39.1769993,-0.000979908628 39.5225085,0.210148476 39.6936387,0.546070841 C39.864769,0.881993206 39.8324316,1.28560948 39.61,1.59 Z" id="Shape" fill="#CBB292"/><path d="M28.2,7.9 C28.1338555,7.9111308 28.0670388,7.91781247 28,7.92 C27.5216459,7.91914642 27.1108867,7.57964133 27.02,7.11 C26.4474918,4.71423647 25.3776872,2.46560259 23.88,0.51 C23.7691469,0.36169587 23.7032014,0.184684202 23.69,0 L25.97,0 C27.4066858,2.01957678 28.4296556,4.30341613 28.98,6.72 C29.0330985,6.97991748 28.9807425,7.25028249 28.8344551,7.47158898 C28.6881678,7.69289548 28.4599387,7.84700544 28.2,7.9 Z" id="Shape" fill="#7F6E5D"/><path d="M36.31,-1.33226763e-15 C36.2967986,0.184684202 36.2308531,0.36169587 36.12,0.51 C34.6223128,2.46560259 33.5525082,4.71423647 32.98,7.11 C32.8891133,7.57964133 32.4783541,7.91914642 32,7.92 C31.9329612,7.91781247 31.8661445,7.9111308 31.8,7.9 C31.5400613,7.84700544 31.3118322,7.69289548 31.1655449,7.47158898 C31.0192575,7.25028249 30.9669015,6.97991748 31.02,6.72 C31.5703444,4.30341613 32.5933142,2.01957678 34.03,-1.33226763e-15 L36.31,-1.33226763e-15 Z" id="Shape" fill="#7F6E5D"/><path d="M5.941,12.173 L10.288,15.9 L10.908,7.208 L5.941,12.173 Z M9.17,20.21 L1.7,13.8 C1.27220762,13.4416181 1.01757132,12.9177949 1,12.36 C0.980386955,11.8028073 1.19424742,11.262719 1.59,10.87 L11.87,0.59 C12.4594852,0.000155630077 13.3530845,-0.162025371 14.1122501,0.183049867 C14.8714156,0.528125104 15.3367966,1.30802442 15.28,2.14 L13.99,20.14 C13.980588,20.2582364 13.9605063,20.3753798 13.93,20.49 L9.17,20.21 Z" id="Shape" fill="#BDC3C7"/><path d="M14,27 L14,21 C14.0026902,20.8274323 13.9790864,20.6554611 13.93,20.49 C13.6987913,19.6132668 12.9067059,19.0017604 12,19 L11,19 C10.2026811,19.0003065 9.48251692,19.4764806 9.17,20.21 C9.05734225,20.4580972 8.99936448,20.7275233 9,21 L8.99999483,27 L14,27 Z" id="Shape" fill="#95A5A5"/><path d="M14,49 L14,56 C13.9967052,57.1032019 13.1032019,57.9967052 12,58 L11,58 C9.89679813,57.9967052 9.0032948,57.1032019 9,56 L9,49 L14,49 Z" id="Shape" fill="#95A5A5"/><ellipse id="Oval" fill="#CB8252" cx="11.5" cy="38" rx="4.206" ry="16.167"/><path d="M55.226,32.5 C52.39,40.167 57.719,47.833 55.396,55.5 C55.3394479,55.6782075 55.2561654,55.8467954 55.149,56 C54.1435621,57.2657225 52.6154649,58.0034109 50.999,58.0034109 C49.3825351,58.0034109 47.8544379,57.2657225 46.849,56 C46.7422155,55.8465702 46.6589625,55.6780419 46.602,55.5 C44.279,47.833 49.608,40.167 46.772,32.5 C46.7115834,32.3395095 46.6748646,32.1710749 46.663,32 C46.518,30.86 48.251,30 50.998,30 C53.745,30 55.478,30.86 55.333,32 C55.3222669,32.1710425 55.2862074,32.339545 55.226,32.5 Z" id="Shape" fill="#CB8252"/></g></g></svg>
