<svg xmlns="http://www.w3.org/2000/svg" width="310" height="308" viewBox="0 0 310 308" version="1.1">
	<path d="M 124.500 6.653 C 82.812 16.164, 53.162 36.275, 29.942 70.788 C 7.567 104.046, -0.054 142.438, 7.534 183.682 C 10.818 201.534, 18.827 220.204, 30.901 238.150 C 53.987 272.466, 84.281 293.038, 123.557 301.069 C 136.368 303.688, 163.031 304.716, 175.500 303.071 C 216.168 297.704, 250.613 277.673, 274.980 245.220 C 288.654 227.008, 297.898 206.382, 303.420 181.763 C 305.616 171.972, 306 167.839, 306 154 C 306 140.161, 305.616 136.028, 303.420 126.237 C 290.842 70.157, 258.167 31.816, 206.508 12.518 C 188.049 5.623, 178.293 4.009, 155.500 4.081 C 137.876 4.136, 134.193 4.441, 124.500 6.653 M 146 9.676 C 112.251 12.127, 80.232 26.388, 55.774 49.864 C 34.373 70.405, 20.947 93.807, 14.231 122.275 C 11.863 132.313, 11.580 135.509, 11.551 152.500 C 11.517 173.429, 12.707 181.803, 18.034 198.105 C 25.209 220.062, 36.783 238.832, 53.466 255.571 C 73.597 275.768, 93.278 287.041, 121 294.249 C 130.902 296.824, 134.869 297.310, 149.555 297.741 C 162.286 298.115, 169.130 297.842, 176.555 296.664 C 230.565 288.094, 273.592 252.310, 291.399 201.152 C 297.090 184.801, 299.359 171.095, 299.369 153 C 299.378 135.468, 297.772 124.601, 293.020 110.060 C 285.671 87.573, 274.449 69.350, 257.548 52.458 C 237.881 32.801, 215.738 20.255, 189 13.620 C 179.480 11.257, 159.270 8.767, 153 9.183 C 151.625 9.275, 148.475 9.496, 146 9.676 M 146.409 43.765 C 144.656 44.946, 112.866 81.124, 98.883 97.851 C 60.835 143.365, 36.063 184.059, 36.013 201.128 C 36.006 203.820, 36.568 206.226, 37.357 206.882 C 38.351 207.706, 71.331 207.940, 160.498 207.754 C 270.630 207.524, 282.378 207.348, 283.287 205.908 C 285.358 202.623, 269.006 171.306, 251.484 145 C 225.138 105.446, 193.113 72.257, 157.863 47.973 C 150.784 43.097, 148.596 42.293, 146.409 43.765 M 127 74.645 C 115.175 88.184, 105.350 99.652, 105.167 100.130 C 104.980 100.616, 127.599 101, 156.417 101 C 184.788 101, 208 100.653, 208 100.229 C 208 99.119, 192.106 83.677, 181.024 74.022 C 172.074 66.224, 150.498 49.983, 149.131 50.015 C 148.784 50.023, 138.825 61.107, 127 74.645 M 104.968 121.750 C 104.933 136.977, 104.584 138.022, 98.714 140.475 C 94.751 142.131, 91.873 145.504, 92.664 147.566 C 93.170 148.884, 98.919 151.310, 104.226 152.444 L 106.952 153.026 106.377 163.763 C 105.729 175.852, 106.625 179.225, 112.158 185.527 C 121.907 196.630, 149.825 201.386, 174.547 196.154 C 195.286 191.765, 203.558 182.954, 204.912 163.809 C 205.643 153.463, 206.482 152.199, 211.576 153.762 C 219.515 156.199, 222.905 150.752, 217.077 144.923 C 215.469 143.315, 213.470 142, 212.634 142 C 208.930 142, 208 138.143, 208 122.777 L 208 108 156.500 108 L 105 108 104.968 121.750 M 215.036 121.236 L 215 134.972 218.926 137.570 C 223.527 140.615, 226 145.227, 226 150.766 C 226 156.357, 223.177 159.596, 217.572 160.437 C 213.134 161.102, 213.103 161.135, 212.475 165.803 C 210.281 182.107, 203.834 190.990, 188.500 198.834 L 182.500 201.904 229.263 201.952 L 276.027 202 274.463 198.250 C 271.715 191.658, 259.905 169.845, 253.212 159 C 243.023 142.488, 231.073 126.220, 217.286 110.090 L 215.072 107.500 215.036 121.236 M 91.500 117.925 C 77.397 136.915, 55.971 167.699, 51.792 174.975 C 47.654 182.181, 42.065 196.638, 42.021 200.250 C 42.001 201.889, 44.638 201.999, 83.750 201.977 L 125.500 201.955 119.049 198.479 C 110.560 193.904, 106.566 189.886, 102.691 182.021 C 99.835 176.222, 99.500 174.618, 99.500 166.736 L 99.500 157.930 95.713 156.796 C 93.631 156.172, 90.836 154.651, 89.504 153.416 C 84.079 148.389, 85.492 141.798, 93.179 136.276 C 95.837 134.367, 98.253 131.836, 98.548 130.652 C 98.843 129.469, 98.953 124, 98.792 118.500 L 98.500 108.500 91.500 117.925 M 115.561 113.902 C 115.203 114.480, 115.392 116.743, 115.981 118.931 C 116.761 121.826, 116.736 124.163, 115.889 127.525 C 114.986 131.111, 115.006 132.987, 115.976 135.927 C 116.907 138.749, 116.942 140.240, 116.112 141.790 C 114.165 145.428, 114.703 146.278, 118.500 145.566 C 121.273 145.046, 122 145.230, 122 146.455 C 122 147.597, 123.068 148, 126.094 148 C 129.368 148, 130.294 147.593, 130.719 145.967 C 131.210 144.088, 131.424 144.048, 133.549 145.440 L 135.847 146.946 136.544 140.434 C 136.927 136.853, 136.957 131.353, 136.610 128.211 C 135.799 120.868, 135.799 121.010, 136.606 117.596 C 137.269 114.791, 137.187 114.713, 134.237 115.303 C 132.058 115.738, 131.020 115.496, 130.622 114.457 C 130.260 113.514, 128.639 113, 126.031 113 C 122.667 113, 122 113.331, 122 115 C 122 117.539, 121.184 117.522, 118.420 114.925 C 117.031 113.620, 115.970 113.240, 115.561 113.902 M 177 114.968 C 177 116.969, 176.879 116.989, 173.946 115.472 L 170.893 113.893 171.071 118.697 C 171.169 121.338, 170.753 125.037, 170.147 126.915 C 169.036 130.357, 169.486 134.494, 171.209 136.688 C 171.722 137.341, 171.832 139.937, 171.454 142.457 L 170.767 147.039 173.449 146.020 C 176.879 144.715, 176.679 144.664, 177.290 147 C 178.183 150.416, 186 148.899, 186 145.310 C 186 143.830, 186.158 143.833, 187.829 145.345 C 188.835 146.255, 190.099 147, 190.640 147 C 191.241 147, 191.622 140.805, 191.622 131 C 191.622 114.645, 191.125 112.734, 187.890 116.633 C 186.664 118.109, 186.482 118.038, 185.978 115.883 C 185.516 113.907, 184.701 113.447, 181.210 113.193 C 177.512 112.922, 177 113.138, 177 114.968 M 121.655 125.829 C 118.909 128.864, 119.725 130.264, 122.880 127.931 C 125.241 126.185, 126.142 126.006, 127.880 126.936 C 130.398 128.283, 130.629 131.228, 128.393 133.464 C 126.917 134.940, 126.509 134.908, 123.393 133.069 C 120.754 131.512, 120 131.381, 120 132.477 C 120 134.176, 123.801 137, 126.088 137 C 128.846 137, 133 133.050, 133 130.427 C 133 125.016, 125.238 121.870, 121.655 125.829 M 176.745 125.750 C 173.794 129.050, 174.140 133.391, 177.531 135.612 C 180.955 137.856, 181.883 136.569, 179.031 133.533 C 176.825 131.185, 176.796 130.961, 178.384 128.537 C 180.268 125.661, 180.412 125.615, 183.066 127.035 C 185.414 128.292, 185.504 130.124, 183.417 134.160 C 182.243 136.430, 182.179 137.023, 183.167 136.458 C 188.346 133.496, 189.443 129.443, 186 126 C 183.533 123.533, 178.841 123.406, 176.745 125.750 M 149.223 138.557 C 148 139.413, 147 140.821, 147 141.686 C 147 142.550, 145.425 145.001, 143.500 147.132 C 141.180 149.699, 140 151.992, 140 153.931 C 140 158.522, 142.364 160.122, 148.870 159.933 C 151.966 159.843, 155.763 160.269, 157.306 160.881 C 159.503 161.752, 160.726 161.676, 162.935 160.534 C 168.115 157.855, 168.259 154.387, 163.500 147 C 161.575 144.012, 160 140.813, 160 139.891 C 160 136.755, 153.027 135.892, 149.223 138.557 M 153 143.286 C 153 144.058, 152.051 145.547, 150.892 146.595 C 149.733 147.643, 147.877 149.772, 146.769 151.327 C 144.046 155.147, 145.815 156.890, 148.988 153.513 C 151.998 150.309, 152.494 150.349, 156.819 154.146 C 158.790 155.877, 160.562 156.814, 160.757 156.228 C 161.176 154.973, 155.508 143.432, 154.022 142.514 C 153.460 142.166, 153 142.514, 153 143.286 M 131.540 157.956 C 128.916 160.855, 129.708 178.789, 132.713 184.500 C 138.877 196.218, 151.915 200.335, 163.919 194.353 C 172.877 189.889, 177.203 181.032, 177.387 166.779 C 177.466 160.694, 177.120 158.691, 175.753 157.325 C 174.108 155.680, 173.947 155.690, 172.600 157.533 C 171.819 158.601, 170.923 161.081, 170.609 163.045 C 169.934 167.266, 166.639 170.670, 161.917 172.024 C 157.349 173.334, 147.048 173.261, 143.119 171.892 C 139.643 170.680, 137 166.616, 137 162.484 C 137 159.613, 135.395 156, 134.120 156 C 133.674 156, 132.513 156.880, 131.540 157.956 M 166.667 178.065 C 165.872 179.200, 165.465 181.063, 165.763 182.203 C 166.249 184.061, 166.494 183.924, 168.111 180.888 C 169.104 179.025, 169.935 177.162, 169.958 176.750 C 170.041 175.262, 168.082 176.044, 166.667 178.065 M 138.484 180.616 C 140.693 185.902, 141.199 186.093, 140.825 181.500 C 140.590 178.617, 140.003 177.422, 138.702 177.176 C 137.005 176.854, 136.993 177.048, 138.484 180.616 M 152.823 183.750 C 152.362 185.381, 151.405 186.019, 149.344 186.070 C 147.780 186.109, 145.645 186.476, 144.599 186.886 C 142.910 187.549, 143.022 187.757, 145.599 188.749 C 151.474 191.011, 153.129 191.104, 158.685 189.489 C 164.923 187.676, 164.516 186.043, 157.820 186.015 C 154.776 186.003, 154.080 185.611, 153.799 183.750 L 153.459 181.500 152.823 183.750 M 125.500 222.477 C 124.950 222.678, 122.362 223.131, 119.750 223.483 C 116.098 223.975, 115 224.535, 115 225.906 C 115 228.970, 118.469 231.276, 121.933 230.515 C 123.620 230.144, 125 230.104, 125 230.424 C 125 230.745, 122.300 234.902, 119 239.663 C 109.654 253.145, 110.743 255.883, 124.720 254.034 C 129.549 253.395, 133.925 252.454, 134.445 251.942 C 135.038 251.357, 135.020 249.984, 134.398 248.255 C 133.481 245.706, 133.052 245.523, 128.663 245.804 L 123.920 246.109 130.006 237.328 C 134.723 230.523, 136.026 227.867, 135.796 225.524 C 135.518 222.684, 135.225 222.488, 131 222.306 C 128.525 222.199, 126.050 222.276, 125.500 222.477 M 139.972 223.534 C 138.472 225.342, 139.338 246.895, 141.039 250.072 C 142.381 252.581, 147.171 255, 150.795 255 C 156.115 255, 157.262 252.377, 158.263 237.924 C 159.258 223.569, 158.839 222, 154.010 222 L 151.265 222 150.796 235.003 C 150.538 242.155, 150.003 248.330, 149.609 248.725 C 147.931 250.403, 147.030 245.790, 147.015 235.450 C 147 224.149, 146.346 222, 142.922 222 C 142 222, 140.672 222.690, 139.972 223.534 M 168.500 230.655 C 167.400 230.888, 165.458 231.301, 164.185 231.574 C 160.735 232.314, 161.563 236.392, 165.250 236.816 C 166.762 236.990, 168 237.333, 168 237.578 C 168 237.822, 166.200 240.660, 164 243.883 C 159.765 250.087, 159.263 251.863, 161.200 253.800 C 163.283 255.883, 174.948 254.511, 176.500 251.999 C 177.347 250.630, 173.078 246.756, 171.423 247.391 C 169.275 248.215, 169.639 247.351, 174 241.260 C 180.572 232.083, 178.711 228.496, 168.500 230.655 M 181.494 230.839 C 181.222 231.111, 181 235.248, 181 240.032 C 181 247.318, 181.337 249.158, 183.073 251.365 C 184.955 253.759, 185.780 254, 192.073 254 L 199 254 199 242.500 L 199 231 195.019 231 L 191.038 231 191.625 235.279 C 192.044 238.336, 191.683 240.693, 190.361 243.529 L 188.511 247.500 188.217 239.358 L 187.923 231.216 184.956 230.780 C 183.324 230.541, 181.766 230.567, 181.494 230.839" stroke="none" fill="black" fill-rule="evenodd"/>
</svg>