<svg height="512pt" viewBox="0 0 512 512" width="512pt" xmlns="http://www.w3.org/2000/svg"><path d="m512 256c0 141.386719-114.613281 256-256 256s-256-114.613281-256-256 114.613281-256 256-256 256 114.613281 256 256zm0 0" fill="#ff7855"/><path d="m125.296875 300.050781 201.902344 201.90625c86.742187-25.066406 154.535156-94.765625 176.898437-182.617187l-199.046875-199.042969zm0 0" fill="#ff562b"/><path d="m87.5 209.671875c0 70.125 57.050781 127.175781 127.175781 127.175781l14.128907-127.175781-14.128907-127.171875c-70.125 0-127.175781 57.050781-127.175781 127.171875zm0 0" fill="#6790bf"/><path d="m382.523438 407.503906-114.183594-114.1875 29.972656-29.972656 114.1875 114.183594zm0 0" fill="#324860"/><path d="m214.675781 82.5v254.347656c70.121094 0 127.171875-57.050781 127.171875-127.175781 0-70.121094-57.050781-127.171875-127.171875-127.171875zm0 0" fill="#446080"/><path d="m115.761719 209.671875c0 54.542969 44.371093 98.914063 98.910156 98.914063l14.132813-98.914063-14.132813-98.910156c-54.539063 0-98.910156 44.371093-98.910156 98.910156zm0 0" fill="#fff"/><path d="m214.675781 110.761719v197.824219c54.539063 0 98.910157-44.371094 98.910157-98.914063 0-54.539063-44.371094-98.910156-98.910157-98.910156zm0 0" fill="#bfdcff"/></svg>