<?xml version="1.0" standalone="no"?><svg xmlns="http://www.w3.org/2000/svg" viewBox="0 0 1440 320"><path fill="#ffd700" fill-opacity="0.8" d="M0,320L20,288C40,256,80,192,120,154.7C160,117,200,107,240,112C280,117,320,139,360,149.3C400,160,440,160,480,138.7C520,117,560,75,600,85.3C640,96,680,160,720,181.3C760,203,800,181,840,176C880,171,920,181,960,197.3C1000,213,1040,235,1080,218.7C1120,203,1160,149,1200,117.3C1240,85,1280,75,1320,90.7C1360,107,1400,149,1420,170.7L1440,192L1440,0L1420,0C1400,0,1360,0,1320,0C1280,0,1240,0,1200,0C1160,0,1120,0,1080,0C1040,0,1000,0,960,0C920,0,880,0,840,0C800,0,760,0,720,0C680,0,640,0,600,0C560,0,520,0,480,0C440,0,400,0,360,0C320,0,280,0,240,0C200,0,160,0,120,0C80,0,40,0,20,0L0,0Z"></path></svg>